<?xml version="1.0" encoding="utf-8"?>
<!-- Generator: Adobe Illustrator 24.0.2, SVG Export Plug-In . SVG Version: 6.00 Build 0)  -->
<svg version="1.1" id="Layer_1" xmlns="http://www.w3.org/2000/svg" xmlns:xlink="http://www.w3.org/1999/xlink" x="0px" y="0px"
	 viewBox="0 0 600 220.5" style="enable-background:new 0 0 600 220.5;" xml:space="preserve">
<style type="text/css">
	.st0{display:none;}
	.st1{fill:#FFCC00;}
	.st2{fill:#605D5C;}
	.st3{fill:#2C2E2D;}
	.st4{opacity:0.12;}
	.st5{fill:#CCCCCC;}
	.st6{fill:#A8A8A8;}
	.st7{fill:#FFFFFF;}
	.st8{fill:#F4A28C;}
	.st9{fill:#FFD200;}
	.st10{fill:#EF5015;}
	.st11{opacity:0.46;fill:#FFFFFF;enable-background:new    ;}
	.st12{fill:#24285B;}
	.st13{opacity:0.31;fill:#CE8172;enable-background:new    ;}
	.st14{opacity:8.000000e-02;enable-background:new    ;}
	.st15{fill:#E6E6E6;}
</style>
<g id="svg8" xmlns:cc="http://creativecommons.org/ns#" xmlns:dc="http://purl.org/dc/elements/1.1/" xmlns:inkscape="http://www.inkscape.org/namespaces/inkscape" xmlns:rdf="http://www.w3.org/1999/02/22-rdf-syntax-ns#" xmlns:sodipodi="http://sodipodi.sourceforge.net/DTD/sodipodi-0.dtd" xmlns:svg="http://www.w3.org/2000/svg">
	<defs>
		
			<inkscape:perspective  id="perspective2422" inkscape:persp3d-origin="135.46667 : -153.10555 : 1" inkscape:vp_x="0 : -107.94999 : 1" inkscape:vp_y="0 : 999.99999 : 0" inkscape:vp_z="270.93333 : -107.94999 : 1" sodipodi:type="inkscape:persp3d">
			</inkscape:perspective>
	</defs>
	
		<sodipodi:namedview  bordercolor="#666666" borderopacity="1.0" id="base" inkscape:current-layer="layer6" inkscape:cx="150.10861" inkscape:cy="53.228634" inkscape:document-rotation="0" inkscape:document-units="mm" inkscape:guide-bbox="true" inkscape:pageopacity="0.0" inkscape:pageshadow="2" inkscape:window-height="706" inkscape:window-maximized="0" inkscape:window-width="1280" inkscape:window-x="0" inkscape:window-y="23" inkscape:zoom="1.9013889" pagecolor="#ffffff" showgrid="false" showguides="true" units="px">
		<sodipodi:guide  id="guide1690" orientation="0,-1" position="-10.869369,136.42489"></sodipodi:guide>
		<sodipodi:guide  id="guide2258" orientation="1,0" position="136.54645,136.42489"></sodipodi:guide>
	</sodipodi:namedview>
	<g id="layer4" inkscape:groupmode="layer" inkscape:label="Layer 4" sodipodi:insensitive="true" class="st0">
	</g>
	<g id="layer3" inkscape:groupmode="layer" inkscape:label="Layer 3">
	</g>
	<g id="g18" inkscape:groupmode="layer" inkscape:label="Image">
		<g id="text24" transform="matrix(0.92407939,0,0,1.0821581,-16,10)">
			<path id="path33" d="M112.4,186.5c-11.6,0-22.1-1.6-31.9-5.1s-18.2-8.4-25.1-15.1c-7-6.8-12.6-15.1-16.3-25.1
				c-3.7-10-5.8-21.7-5.8-34.9c0-12.3,1.9-23.5,5.6-33.5c3.7-10,9.1-18.6,16.1-25.8c6.8-7,15.1-12.1,24.9-16.1
				c10-3.7,21-5.6,32.8-5.6c6.5,0,12.3,0.5,17.7,1.2c5.4,0.7,10.2,1.6,14.7,2.8c4.7,1.4,8.8,2.8,12.6,4.4c3.7,1.6,7.2,3,10,4.4v37.7
				h-4.7c-1.9-1.6-4.4-3.7-7.5-6.1c-3-2.3-6.3-4.7-10-6.8c-3.7-2.3-7.9-4.2-12.3-5.6c-4.4-1.6-9.3-2.3-14.2-2.3
				c-5.6,0-10.9,0.9-16.1,2.8c-5.1,1.6-9.8,4.7-14,8.8c-4.2,4-7.5,9.3-10,15.8c-2.6,6.5-3.7,14.4-3.7,23.7c0,9.8,1.4,17.9,4,24.4
				c2.8,6.5,6.3,11.6,10.5,15.4c4.2,3.7,9.1,6.5,14.2,8.1c5.1,1.6,10.2,2.3,15.4,2.3c4.9,0,9.8-0.7,14.4-2.1
				c4.9-1.4,9.3-3.5,13.3-6.1c3.5-2.1,6.5-4.2,9.5-6.5c3-2.3,5.4-4.2,7.2-6.1h4.2v37c-4,1.6-7.7,3.3-11.2,4.9
				c-3.5,1.6-7.2,2.8-11.2,4c-5.1,1.4-9.8,2.6-14.2,3.3C126.3,186.1,120.3,186.5,112.4,186.5L112.4,186.5z"/>
		</g>
		<g id="text28" transform="translate(-16,10)">
			<path id="path30" d="M233.7,83.9h-62.6V70.7c4.9-3.5,9.5-7.2,14.4-10.9c4.9-4,8.6-7.2,11.6-10c4.4-4.2,7.5-7.9,9.3-10.9
				c1.9-3,2.8-6.3,2.8-9.3c0-3.7-1.2-6.5-3.5-8.4c-2.3-2.1-5.6-3-10-3c-3.3,0-6.8,0.7-10.5,2.1c-3.7,1.4-7,3-10,5.1h-1.6V7.4
				c2.6-1.2,6.3-2.3,11.2-3.3c4.9-1.2,10-1.6,14.9-1.6c10,0,17.7,2.1,22.8,6.3c5.4,4.2,7.9,10,7.9,17.7c0,5.1-1.2,9.8-3.7,14.4
				c-2.6,4.4-6.3,9.3-11.6,14c-3.3,3-6.5,5.8-9.8,8.4c-3.3,2.6-5.6,4.2-7,5.4h35.9v15.4H233.7z"/>
		</g>
		<g id="g50" transform="matrix(0.92407939,0,0,1.0821581,-28,-6)">
			<path id="path48" class="st1" d="M120,195.1c-11.6,0-22.1-1.6-31.9-5.1S70,181.6,63,174.8c-7-6.8-12.6-15.1-16.3-25.1
				c-3.7-10-5.8-21.7-5.8-34.9c0-12.3,1.9-23.5,5.6-33.5c3.7-10,9.1-18.6,16.1-25.8c6.8-7,15.1-12.1,24.9-16.1
				c10-3.7,21-5.6,32.8-5.6c6.5,0,12.3,0.5,17.7,1.2s10.2,1.6,14.7,2.8c4.7,1.4,8.8,2.8,12.6,4.4c3.7,1.6,7.2,3,10,4.4v37.7h-4.7
				c-1.9-1.6-4.4-3.7-7.5-6.1s-6.3-4.7-10-6.8c-3.7-2.3-7.9-4.2-12.3-5.6c-4.4-1.6-9.3-2.3-14.2-2.3c-5.6,0-10.9,0.9-16.1,2.8
				c-5.1,1.6-9.8,4.7-14,8.8c-4.2,4-7.5,9.3-10,15.8s-3.7,14.4-3.7,23.7c0,9.8,1.4,17.9,4,24.4c2.8,6.5,6.3,11.6,10.5,15.4
				c4.2,3.7,9.1,6.5,14.2,8.1s10.2,2.3,15.4,2.3c4.9,0,9.8-0.7,14.4-2.1c4.9-1.4,9.3-3.5,13.3-6.1c3.5-2.1,6.5-4.2,9.5-6.5
				c3-2.3,5.4-4.2,7.2-6.1h4.2v37.5c-4,1.6-7.7,3.3-11.2,4.9c-3.5,1.6-7.2,2.8-11.2,4c-5.1,1.4-9.8,2.6-14.2,3.3
				S128,195.1,120,195.1L120,195.1z"/>
		</g>
		<g id="g54" transform="translate(-28,-6)">
			<path id="path52" class="st1" d="M240.8,93.2h-62.6v-13c4.9-3.5,9.5-7.2,14.4-10.9c4.9-4,8.6-7.2,11.6-10
				c4.4-4.2,7.5-7.9,9.3-10.9c1.9-3,2.8-6.3,2.8-9.3c0-3.7-1.2-6.5-3.5-8.4c-2.3-2.1-5.6-3-10-3c-3.3,0-6.8,0.7-10.5,2.1
				c-3.7,1.4-7,3-10,5.1h-1.6V17.1c2.6-1.2,6.3-2.3,11.2-3.3c4.9-1.2,10-1.6,14.9-1.6c10,0,17.7,2.1,22.8,6.3
				c5.4,4.2,7.9,10,7.9,17.7c0,5.1-1.2,9.8-3.7,14.4c-2.6,4.4-6.3,9.3-11.6,14c-3.3,3-6.5,5.8-9.8,8.4c-3.3,2.6-5.6,4.2-7,5.4h35.9
				v14.9H240.8z"/>
		</g>
	</g>
</g>
<rect x="335.5" y="40.2" class="st2" width="56.3" height="43.5"/>
<rect x="335.5" y="31.8" class="st3" width="56.3" height="8.4"/>
<g class="st4">
	<path d="M361.6,74.2c-1.9-0.2-3.5-0.9-5.1-2.1c-0.5,0.5-0.9,0.9-1.4,1.6c-0.2,0.2-0.5,0.2-0.7,0c-0.7-0.9-1.6-1.6-2.3-2.3
		c-0.2-0.2-0.2-0.5,0-0.5c0.5-0.5,0.9-0.9,1.4-1.6c-0.5-0.9-0.9-1.6-1.2-2.6c-0.2-0.7-0.5-1.4-0.7-2.1c0-0.2-0.2-0.2-0.5-0.2
		c-0.7,0-1.2,0-1.9,0c-0.2,0-0.5-0.2-0.5-0.5c0-1.2,0-2.3,0-3.5c0-0.2,0.2-0.5,0.5-0.5c0.7,0,1.2,0,1.9,0c0.2,0,0.2-0.2,0.2-0.2
		c0.5-1.6,0.9-3.3,2.1-4.7c-0.5-0.5-0.9-0.9-1.6-1.6c-0.2-0.2-0.2-0.5,0-0.5c0.9-0.9,1.6-1.6,2.6-2.6c0.2-0.2,0.5-0.2,0.7,0
		c0.5,0.5,0.9,0.9,1.4,1.6c0.5-0.2,0.7-0.5,0.9-0.7c1.2-0.7,2.3-1.2,3.7-1.4c0.2,0,0.5-0.2,0.5-0.5c0-0.7,0-1.2,0-1.9
		c0-0.2,0-0.5,0.5-0.5c1.2,0,2.3,0,3.5,0c0.2,0,0.5,0.2,0.5,0.5c0,0.7,0,1.4,0,2.1c1.9,0.2,3.5,0.9,5.1,2.1c0.5-0.5,0.9-0.9,1.4-1.6
		c0.2-0.2,0.5-0.2,0.7,0c0.7,0.9,1.6,1.6,2.3,2.3c0.2,0.2,0.2,0.5,0,0.7c-0.5,0.5-0.9,0.9-1.6,1.6c0.2,0.2,0.2,0.5,0.5,0.7
		c0.7,1.2,1.2,2.6,1.6,4c0,0.2,0.2,0.5,0.5,0.5c0.5,0,1.2,0,1.6,0c0.2,0,0.5,0,0.5,0.5c0,1.2,0,2.3,0,3.5c0,0.2-0.2,0.5-0.5,0.5
		c-0.7,0-1.2,0-1.9,0c-0.2,0-0.2,0.2-0.2,0.2c-0.2,1.6-0.9,3.3-2.1,4.7c0.5,0.5,0.9,0.9,1.6,1.6c0.2,0.2,0.2,0.5,0,0.7
		c-0.9,0.7-1.6,1.6-2.3,2.3c-0.2,0.2-0.5,0.2-0.5,0c-0.5-0.5-0.9-0.9-1.6-1.6c-1.6,0.9-3.3,1.6-5.1,2.1c0,0.7,0,1.4,0,2.1
		c0,0.2,0,0.5-0.5,0.5c-1.2,0-2.3,0-3.5,0c-0.2,0-0.5-0.2-0.5-0.5C361.6,75.6,361.6,74.9,361.6,74.2z M363.7,54.6
		c-4,0-7.2,3.3-7.2,7.2s3.3,7.2,7.2,7.2c4,0,7.2-3.3,7.2-7.2S367.9,54.6,363.7,54.6L363.7,54.6z"/>
</g>
<rect x="485" y="29" class="st2" width="85.4" height="85.4"/>
<rect x="513.1" y="38.3" class="st5" width="82.2" height="36.1"/>
<path class="st2" d="M404.6,181.5h67.5c7.5,0,13.3,6.1,13.3,13.3l0,0c0,7.5-6.1,13.3-13.3,13.3h-67.5c-7.5,0-13.3-6.1-13.3-13.3l0,0
	C391.1,187.5,397.2,181.5,404.6,181.5z"/>
<path class="st2" d="M449.8,151.9h67.5c7.5,0,13.3,6.1,13.3,13.3l0,0c0,7.5-6.1,13.3-13.3,13.3h-67.5c-7.5,0-13.3-6.1-13.3-13.3l0,0
	C436.3,158,442.4,151.9,449.8,151.9z"/>
<path class="st2" d="M495,122.4h67.5c7.5,0,13.3,6.1,13.3,13.3l0,0c0,7.5-6.1,13.3-13.3,13.3H495c-7.5,0-13.3-6.1-13.3-13.3l0,0
	C481.7,128.2,487.5,122.4,495,122.4z"/>
<rect x="342.9" y="159.6" class="st6" width="8.6" height="8.6"/>
<rect x="356.2" y="162.4" class="st7" width="20" height="3.5"/>
<rect x="342.9" y="175.2" class="st6" width="8.6" height="8.6"/>
<rect x="356.2" y="178" class="st7" width="20" height="3.5"/>
<rect x="342.9" y="189.9" class="st6" width="8.6" height="8.6"/>
<rect x="356.2" y="192.7" class="st7" width="20" height="3.5"/>
<path class="st8" d="M512,53c1.2-0.7,2.3-1.6,3.5-2.3c0.5-0.7,1.6-4.7,2.3-5.6c0.7-0.9,2.3-0.7,2.6,0c0.2,0.7,0.2,1.2,0,1.9
	c0,0,0.9-1.2,0.9-0.5c-0.2,2.1-1.2,4.2-2.3,5.8c-1.9,2.3-5.1,5.6-5.1,5.6L512,53z"/>
<rect x="370.8" y="106.4" transform="matrix(0.3287 -0.9444 0.9444 0.3287 139.7449 444.0523)" class="st9" width="22.8" height="34.7"/>
<path class="st10" d="M450,56.2c0,0,44.5,7.5,63.1-4.7l2.8,4.4c0,0-7.7,11.6-29.6,16.8c-21.9,5.1-34.5,2.6-34.5,2.6L450,56.2z"/>
<path class="st11" d="M450,56.2c0,0,44.5,7.5,63.1-4.7l2.8,4.4c0,0-7.7,11.6-29.6,16.8c-21.9,5.1-34.5,2.6-34.5,2.6L450,56.2z"/>
<path class="st10" d="M409.1,172.2c0,0-1.2,2.6,0.5,4.2c1.6,1.6,0.5,3.7-1.4,2.8c-1.9-0.9-4-6.5-4-6.5l3-3L409.1,172.2z"/>
<path class="st10" d="M476.8,148c0,0,2.3,1.4,4.2,0c1.9-1.4,3.7,0,2.6,1.9c-1.2,1.9-7,3.3-7,3.3l-2.6-3.3L476.8,148z"/>
<path class="st8" d="M448.2,36.9c-0.5,2.6-1.2,4.9-2.1,7.5c-0.7,1.2-1.9,1.6-3,0.9l0,0c-1.9-0.9-3-2.8-3-4.7l-0.5-4.2
	c0-1.9,1.2-3.3,2.8-4C445.2,31.3,448.6,34.1,448.2,36.9z"/>
<polygon class="st8" points="439.6,37.1 433.7,50.9 441.7,53.7 442.6,42.5 "/>
<path class="st12" d="M447,36.7c-1.4-0.2-2.8-0.7-4-1.4c0.5,1.4,0.2,3-0.9,4.2c-1.2,0.9-2.8,1.2-4,0.2l1.4-5.8
	c0.5-1.6,1.6-3,3.3-3.5c0.7-0.2,1.4-0.5,2.1-0.5c1.9-0.2,4,1.4,5.8,0.7c0.5-0.2,1.2,0,1.4,0.5c0,0.2,0,0.5,0,0.5
	c-0.2,1.9-1.2,4.4-3.7,4.9C447.9,36.9,447.5,36.9,447,36.7z"/>
<path class="st8" d="M442.4,39.5c0,0,0.5-1.6-0.9-1.9s-1.9,2.3-0.2,3L442.4,39.5z"/>
<path class="st8" d="M447.5,39.7l0.9,2.1c0.2,0.5,0,0.9-0.5,0.9h-0.2h-1.9L447.5,39.7z"/>
<path class="st13" d="M442.6,44.8c-0.9-0.5-1.6-1.2-2.1-2.1c0,0-0.5,2.8,1.9,6.1L442.6,44.8z"/>
<path class="st10" d="M433.7,50.9l5.4,1.9c1.4,0.5,2.6,0.9,4,1.2c4.4,0.9,17,4.7,19.3,18.9c2.8,17.2-21,40.5-21,40.5l-27.9-6.5
	C413.5,106.5,393.7,43,433.7,50.9z"/>
<path class="st3" d="M413.5,106.5c0,0-3.7,17.7,9.5,20s36.3-8.1,50.3,23.5l4.9-2.8c0,0-3.3-28.9-34-37.3L413.5,106.5z"/>
<path class="st3" d="M417.9,114.2c0,0,17.5,27.2-12.3,53.1l3.7,4.9c0,0,32.1-14.7,28.9-55.6L417.9,114.2z"/>
<path class="st14" d="M433.7,66.5c0,0,0.2,7-8.4,16.1c-8.6,9.1,3.5,25.8,3.5,25.8l-15.1-1.6c0,0-5.8-20.7-4.7-34.5
	c1.2-13.5,24.2-5.6,24.2-5.6L433.7,66.5z"/>
<path class="st10" d="M418.6,50.4c-16.8,0.9-51.9,8.6-37,55.6l7.5-0.7c0,0-2.1-35.4,28.9-34.2c1.2,0,2.3,0,3.5,0
	c5.1-0.5,17.5-2.6,12.3-12.6C430.7,53.2,424.7,49.9,418.6,50.4z"/>
<path class="st11" d="M418.6,50.4c-16.8,0.9-51.9,8.6-37,55.6l7.5-0.7c0,0-2.1-35.4,28.9-34.2c1.2,0,2.3,0,3.5,0
	c5.1-0.5,17.5-2.6,12.3-12.6C430.7,53.2,424.7,49.9,418.6,50.4z"/>
<path class="st8" d="M387.6,105.6c0.7,2.3,0.7,4.9,0,7.2c-1.2,3.5-3.7,4.2-5.8,3c-2.1-1.2,2.1-6.8,2.1-6.8l-1.4-3L387.6,105.6z"/>
<rect x="523.4" y="46.9" class="st15" width="16.8" height="16.8"/>
<rect x="546.7" y="47.9" class="st15" width="40" height="5.1"/>
<rect x="546.7" y="57.6" class="st15" width="33.1" height="5.1"/>
<polygon class="st7" points="497.8,128.9 499.9,133.3 504.8,134 501.3,137.5 502,142.1 497.8,140 493.3,142.1 494.3,137.5 
	490.8,134 495.7,133.3 "/>
<polygon class="st7" points="513.1,128.9 515.2,133.3 520.1,134 516.6,137.5 517.3,142.1 513.1,140 508.7,142.1 509.6,137.5 
	506.1,134 511,133.3 "/>
<polygon class="st7" points="528.5,128.9 530.6,133.3 535.5,134 532,137.5 532.7,142.1 528.5,140 524.1,142.1 525,137.5 521.5,134 
	526.4,133.3 "/>
<polygon class="st7" points="543.9,128.9 546,133.3 550.9,134 547.4,137.5 548.3,142.1 543.9,140 539.7,142.1 540.4,137.5 
	536.9,134 541.8,133.3 "/>
<polygon class="st7" points="559.2,128.9 561.6,133.3 566.2,134 562.7,137.5 563.7,142.1 559.2,140 555,142.1 555.7,137.5 
	552.2,134 557.1,133.3 "/>
<polygon class="st7" points="454.2,159.1 456.3,163.6 461.2,164.3 457.7,167.5 458.7,172.4 454.2,170.1 450,172.4 450.7,167.5 
	447.2,164.3 452.1,163.6 "/>
<polygon class="st7" points="469.6,159.1 471.7,163.6 476.6,164.3 473.1,167.5 474,172.4 469.6,170.1 465.4,172.4 466.1,167.5 
	462.6,164.3 467.5,163.6 "/>
<polygon class="st7" points="485,159.1 487.1,163.6 491.9,164.3 488.5,167.5 489.4,172.4 485,170.1 480.8,172.4 481.5,167.5 
	478,164.3 482.9,163.6 "/>
<polygon class="st7" points="500.3,159.1 502.7,163.6 507.3,164.3 503.8,167.5 504.8,172.4 500.3,170.1 496.1,172.4 496.8,167.5 
	493.3,164.3 498.2,163.6 "/>
<polygon class="st7" points="407.4,187.5 409.5,192 414.4,192.7 410.9,195.9 411.9,200.8 407.4,198.5 403.2,200.8 403.9,195.9 
	400.5,192.7 405.3,192 "/>
<polygon class="st7" points="422.8,187.5 425.1,192 429.8,192.7 426.3,195.9 427.2,200.8 422.8,198.5 418.6,200.8 419.3,195.9 
	415.8,192.7 420.7,192 "/>
<polygon class="st7" points="438.2,187.5 440.5,192 445.2,192.7 441.7,195.9 442.6,200.8 438.2,198.5 434,200.8 434.9,195.9 
	431.2,192.7 436.1,192 "/>
</svg>
