<?xml version="1.0" encoding="utf-8"?>
<!-- Generator: Adobe Illustrator 24.0.2, SVG Export Plug-In . SVG Version: 6.00 Build 0)  -->
<svg version="1.1" id="Layer_1" xmlns="http://www.w3.org/2000/svg" xmlns:xlink="http://www.w3.org/1999/xlink" x="0px" y="0px"
	 viewBox="0 0 283 104" style="enable-background:new 0 0 283 104;" xml:space="preserve">
<style type="text/css">
	.st0{display:none;}
	.st1{fill:#FFCC00;}
	.st2{fill:#605D5C;}
	.st3{fill:#2C2E2D;}
	.st4{opacity:0.12;}
	.st5{fill:#CCCCCC;}
	.st6{fill:#A8A8A8;}
	.st7{fill:#FFFFFF;}
	.st8{fill:#F4A28C;}
	.st9{fill:#FFD200;}
	.st10{fill:#EF5015;}
	.st11{opacity:0.46;fill:#FFFFFF;enable-background:new    ;}
	.st12{fill:#24285B;}
	.st13{opacity:0.31;fill:#CE8172;enable-background:new    ;}
	.st14{opacity:8.000000e-02;enable-background:new    ;}
	.st15{fill:#E6E6E6;}
</style>
<g id="svg8" xmlns:cc="http://creativecommons.org/ns#" xmlns:dc="http://purl.org/dc/elements/1.1/" xmlns:inkscape="http://www.inkscape.org/namespaces/inkscape" xmlns:rdf="http://www.w3.org/1999/02/22-rdf-syntax-ns#" xmlns:sodipodi="http://sodipodi.sourceforge.net/DTD/sodipodi-0.dtd" xmlns:svg="http://www.w3.org/2000/svg">
	<defs>
		
			<inkscape:perspective  id="perspective2422" inkscape:persp3d-origin="135.46667 : -153.10555 : 1" inkscape:vp_x="0 : -107.94999 : 1" inkscape:vp_y="0 : 999.99999 : 0" inkscape:vp_z="270.93333 : -107.94999 : 1" sodipodi:type="inkscape:persp3d">
			</inkscape:perspective>
	</defs>
	
		<sodipodi:namedview  bordercolor="#666666" borderopacity="1.0" id="base" inkscape:current-layer="layer6" inkscape:cx="150.10861" inkscape:cy="53.228634" inkscape:document-rotation="0" inkscape:document-units="mm" inkscape:guide-bbox="true" inkscape:pageopacity="0.0" inkscape:pageshadow="2" inkscape:window-height="706" inkscape:window-maximized="0" inkscape:window-width="1280" inkscape:window-x="0" inkscape:window-y="23" inkscape:zoom="1.9013889" pagecolor="#ffffff" showgrid="false" showguides="true" units="px">
		<sodipodi:guide  id="guide1690" orientation="0,-1" position="-10.869369,136.42489"></sodipodi:guide>
		<sodipodi:guide  id="guide2258" orientation="1,0" position="136.54645,136.42489"></sodipodi:guide>
	</sodipodi:namedview>
	<g id="layer4" inkscape:groupmode="layer" inkscape:label="Layer 4" sodipodi:insensitive="true" class="st0">
	</g>
	<g id="layer3" inkscape:groupmode="layer" inkscape:label="Layer 3">
	</g>
	<g id="g18" inkscape:groupmode="layer" inkscape:label="Image">
		<g id="text24" transform="matrix(0.92407939,0,0,1.0821581,-16,10)">
			<path id="path33" d="M73.4,78.5c-5,0-9.5-0.7-13.7-2.2s-7.8-3.6-10.8-6.5s-5.4-6.5-7-10.8s-2.5-9.3-2.5-15
				c0-5.3,0.8-10.1,2.4-14.4s3.9-8,6.9-11.1c2.9-3,6.5-5.2,10.7-6.9c4.3-1.6,9-2.4,14.1-2.4c2.8,0,5.3,0.2,7.6,0.5
				c2.3,0.3,4.4,0.7,6.3,1.2c2,0.6,3.8,1.2,5.4,1.9c1.6,0.7,3.1,1.3,4.3,1.9v16.2h-2c-0.8-0.7-1.9-1.6-3.2-2.6s-2.7-2-4.3-2.9
				c-1.6-1-3.4-1.8-5.3-2.4c-1.9-0.7-4-1-6.1-1c-2.4,0-4.7,0.4-6.9,1.2c-2.2,0.7-4.2,2-6,3.8c-1.8,1.7-3.2,4-4.3,6.8
				S57.4,40,57.4,44c0,4.2,0.6,7.7,1.7,10.5c1.2,2.8,2.7,5,4.5,6.6c1.8,1.6,3.9,2.8,6.1,3.5c2.2,0.7,4.4,1,6.6,1
				c2.1,0,4.2-0.3,6.2-0.9c2.1-0.6,4-1.5,5.7-2.6c1.5-0.9,2.8-1.8,4.1-2.8c1.3-1,2.3-1.8,3.1-2.6h1.8v15.9c-1.7,0.7-3.3,1.4-4.8,2.1
				s-3.1,1.2-4.8,1.7c-2.2,0.6-4.2,1.1-6.1,1.4C79.4,78.3,76.8,78.5,73.4,78.5L73.4,78.5z"/>
		</g>
		<g id="text28" transform="translate(-16,10)">
			<path id="path30" d="M123.6,34.3H96.7v-5.7c2.1-1.5,4.1-3.1,6.2-4.7c2.1-1.7,3.7-3.1,5-4.3c1.9-1.8,3.2-3.4,4-4.7s1.2-2.7,1.2-4
				c0-1.6-0.5-2.8-1.5-3.6c-1-0.9-2.4-1.3-4.3-1.3c-1.4,0-2.9,0.3-4.5,0.9s-3,1.3-4.3,2.2h-0.7V1.4c1.1-0.5,2.7-1,4.8-1.4
				c2.1-0.5,4.3-0.7,6.4-0.7c4.3,0,7.6,0.9,9.8,2.7c2.3,1.8,3.4,4.3,3.4,7.6c0,2.2-0.5,4.2-1.6,6.2c-1.1,1.9-2.7,4-5,6
				c-1.4,1.3-2.8,2.5-4.2,3.6s-2.4,1.8-3,2.3h15.4v6.6H123.6z"/>
		</g>
		<g id="g50" transform="matrix(0.92407939,0,0,1.0821581,-28,-6)">
			<path id="path48" class="st1" d="M84.1,90.6c-5,0-9.5-0.7-13.7-2.2s-7.8-3.6-10.8-6.5c-3-2.9-5.4-6.5-7-10.8
				c-1.6-4.3-2.5-9.3-2.5-15c0-5.3,0.8-10.1,2.4-14.4c1.6-4.3,3.9-8,6.9-11.1c2.9-3,6.5-5.2,10.7-6.9c4.3-1.6,9-2.4,14.1-2.4
				c2.8,0,5.3,0.2,7.6,0.5s4.4,0.7,6.3,1.2c2,0.6,3.8,1.2,5.4,1.9c1.6,0.7,3.1,1.3,4.3,1.9V43h-2c-0.8-0.7-1.9-1.6-3.2-2.6
				s-2.7-2-4.3-2.9c-1.6-1-3.4-1.8-5.3-2.4c-1.9-0.7-4-1-6.1-1c-2.4,0-4.7,0.4-6.9,1.2c-2.2,0.7-4.2,2-6,3.8c-1.8,1.7-3.2,4-4.3,6.8
				s-1.6,6.2-1.6,10.2c0,4.2,0.6,7.7,1.7,10.5c1.2,2.8,2.7,5,4.5,6.6s3.9,2.8,6.1,3.5c2.2,0.7,4.4,1,6.6,1c2.1,0,4.2-0.3,6.2-0.9
				c2.1-0.6,4-1.5,5.7-2.6c1.5-0.9,2.8-1.8,4.1-2.8s2.3-1.8,3.1-2.6h1.8v16.1c-1.7,0.7-3.3,1.4-4.8,2.1s-3.1,1.2-4.8,1.7
				c-2.2,0.6-4.2,1.1-6.1,1.4S87.5,90.6,84.1,90.6L84.1,90.6z"/>
		</g>
		<g id="g54" transform="translate(-28,-6)">
			<path id="path52" class="st1" d="M133.5,47.4h-26.9v-5.6c2.1-1.5,4.1-3.1,6.2-4.7c2.1-1.7,3.7-3.1,5-4.3c1.9-1.8,3.2-3.4,4-4.7
				c0.8-1.3,1.2-2.7,1.2-4c0-1.6-0.5-2.8-1.5-3.6c-1-0.9-2.4-1.3-4.3-1.3c-1.4,0-2.9,0.3-4.5,0.9s-3,1.3-4.3,2.2h-0.7v-7.6
				c1.1-0.5,2.7-1,4.8-1.4c2.1-0.5,4.3-0.7,6.4-0.7c4.3,0,7.6,0.9,9.8,2.7c2.3,1.8,3.4,4.3,3.4,7.6c0,2.2-0.5,4.2-1.6,6.2
				c-1.1,1.9-2.7,4-5,6c-1.4,1.3-2.8,2.5-4.2,3.6s-2.4,1.8-3,2.3h15.4v6.4H133.5z"/>
		</g>
	</g>
</g>
<rect x="158.2" y="21.2" class="st2" width="24.2" height="18.7"/>
<rect x="158.2" y="17.6" class="st3" width="24.2" height="3.6"/>
<g class="st4">
	<path d="M169.4,35.8c-0.8-0.1-1.5-0.4-2.2-0.9c-0.2,0.2-0.4,0.4-0.6,0.7c-0.1,0.1-0.2,0.1-0.3,0c-0.3-0.4-0.7-0.7-1-1
		c-0.1-0.1-0.1-0.2,0-0.2c0.2-0.2,0.4-0.4,0.6-0.7c-0.2-0.4-0.4-0.7-0.5-1.1c-0.1-0.3-0.2-0.6-0.3-0.9c0-0.1-0.1-0.1-0.2-0.1
		c-0.3,0-0.5,0-0.8,0c-0.1,0-0.2-0.1-0.2-0.2c0-0.5,0-1,0-1.5c0-0.1,0.1-0.2,0.2-0.2c0.3,0,0.5,0,0.8,0c0.1,0,0.1-0.1,0.1-0.1
		c0.2-0.7,0.4-1.4,0.9-2c-0.2-0.2-0.4-0.4-0.7-0.7c-0.1-0.1-0.1-0.2,0-0.2c0.4-0.4,0.7-0.7,1.1-1.1c0.1-0.1,0.2-0.1,0.3,0
		c0.2,0.2,0.4,0.4,0.6,0.7c0.2-0.1,0.3-0.2,0.4-0.3c0.5-0.3,1-0.5,1.6-0.6c0.1,0,0.2-0.1,0.2-0.2c0-0.3,0-0.5,0-0.8
		c0-0.1,0-0.2,0.2-0.2c0.5,0,1,0,1.5,0c0.1,0,0.2,0.1,0.2,0.2c0,0.3,0,0.6,0,0.9c0.8,0.1,1.5,0.4,2.2,0.9c0.2-0.2,0.4-0.4,0.6-0.7
		c0.1-0.1,0.2-0.1,0.3,0c0.3,0.4,0.7,0.7,1,1c0.1,0.1,0.1,0.2,0,0.3c-0.2,0.2-0.4,0.4-0.7,0.7c0.1,0.1,0.1,0.2,0.2,0.3
		c0.3,0.5,0.5,1.1,0.7,1.7c0,0.1,0.1,0.2,0.2,0.2c0.2,0,0.5,0,0.7,0c0.1,0,0.2,0,0.2,0.2c0,0.5,0,1,0,1.5c0,0.1-0.1,0.2-0.2,0.2
		c-0.3,0-0.5,0-0.8,0c-0.1,0-0.1,0.1-0.1,0.1c-0.1,0.7-0.4,1.4-0.9,2c0.2,0.2,0.4,0.4,0.7,0.7c0.1,0.1,0.1,0.2,0,0.3
		c-0.4,0.3-0.7,0.7-1,1c-0.1,0.1-0.2,0.1-0.2,0c-0.2-0.2-0.4-0.4-0.7-0.7c-0.7,0.4-1.4,0.7-2.2,0.9c0,0.3,0,0.6,0,0.9
		c0,0.1,0,0.2-0.2,0.2c-0.5,0-1,0-1.5,0c-0.1,0-0.2-0.1-0.2-0.2C169.4,36.4,169.4,36.1,169.4,35.8z M170.3,27.4
		c-1.7,0-3.1,1.4-3.1,3.1c0,1.7,1.4,3.1,3.1,3.1c1.7,0,3.1-1.4,3.1-3.1S172.1,27.4,170.3,27.4L170.3,27.4z"/>
</g>
<rect x="222.4" y="16.4" class="st2" width="36.7" height="36.7"/>
<rect x="234.5" y="20.4" class="st5" width="35.3" height="15.5"/>
<path class="st2" d="M187.9,81.9h29c3.2,0,5.7,2.6,5.7,5.7l0,0c0,3.2-2.6,5.7-5.7,5.7h-29c-3.2,0-5.7-2.6-5.7-5.7l0,0
	C182.1,84.5,184.7,81.9,187.9,81.9z"/>
<path class="st2" d="M207.3,69.2h29c3.2,0,5.7,2.6,5.7,5.7l0,0c0,3.2-2.6,5.7-5.7,5.7h-29c-3.2,0-5.7-2.6-5.7-5.7l0,0
	C201.5,71.8,204.1,69.2,207.3,69.2z"/>
<path class="st2" d="M226.7,56.5h29c3.2,0,5.7,2.6,5.7,5.7l0,0c0,3.2-2.6,5.7-5.7,5.7h-29c-3.2,0-5.7-2.6-5.7-5.7l0,0
	C221,59,223.5,56.5,226.7,56.5z"/>
<rect x="161.4" y="72.5" class="st6" width="3.7" height="3.7"/>
<rect x="167.1" y="73.7" class="st7" width="8.6" height="1.5"/>
<rect x="161.4" y="79.2" class="st6" width="3.7" height="3.7"/>
<rect x="167.1" y="80.4" class="st7" width="8.6" height="1.5"/>
<rect x="161.4" y="85.5" class="st6" width="3.7" height="3.7"/>
<rect x="167.1" y="86.7" class="st7" width="8.6" height="1.5"/>
<path class="st8" d="M234,26.7c0.5-0.3,1-0.7,1.5-1c0.2-0.3,0.7-2,1-2.4s1-0.3,1.1,0c0.1,0.3,0.1,0.5,0,0.8c0,0,0.4-0.5,0.4-0.2
	c-0.1,0.9-0.5,1.8-1,2.5c-0.8,1-2.2,2.4-2.2,2.4L234,26.7z"/>
<rect x="173.4" y="49.6" transform="matrix(0.3287 -0.9444 0.9444 0.3287 65.7921 206.7234)" class="st9" width="9.8" height="14.9"/>
<path class="st10" d="M207.4,28.1c0,0,19.1,3.2,27.1-2l1.2,1.9c0,0-3.3,5-12.7,7.2c-9.4,2.2-14.8,1.1-14.8,1.1L207.4,28.1z"/>
<path class="st11" d="M207.4,28.1c0,0,19.1,3.2,27.1-2l1.2,1.9c0,0-3.3,5-12.7,7.2c-9.4,2.2-14.8,1.1-14.8,1.1L207.4,28.1z"/>
<path class="st10" d="M189.8,77.9c0,0-0.5,1.1,0.2,1.8c0.7,0.7,0.2,1.6-0.6,1.2s-1.7-2.8-1.7-2.8l1.3-1.3L189.8,77.9z"/>
<path class="st10" d="M218.9,67.5c0,0,1,0.6,1.8,0c0.8-0.6,1.6,0,1.1,0.8c-0.5,0.8-3,1.4-3,1.4l-1.1-1.4L218.9,67.5z"/>
<path class="st8" d="M206.6,19.8c-0.2,1.1-0.5,2.1-0.9,3.2c-0.3,0.5-0.8,0.7-1.3,0.4l0,0c-0.8-0.4-1.3-1.2-1.3-2l-0.2-1.8
	c0-0.8,0.5-1.4,1.2-1.7C205.3,17.4,206.8,18.6,206.6,19.8z"/>
<polygon class="st8" points="202.9,19.9 200.4,25.8 203.8,27 204.2,22.2 "/>
<path class="st12" d="M206.1,19.7c-0.6-0.1-1.2-0.3-1.7-0.6c0.2,0.6,0.1,1.3-0.4,1.8c-0.5,0.4-1.2,0.5-1.7,0.1l0.6-2.5
	c0.2-0.7,0.7-1.3,1.4-1.5c0.3-0.1,0.6-0.2,0.9-0.2c0.8-0.1,1.7,0.6,2.5,0.3c0.2-0.1,0.5,0,0.6,0.2c0,0.1,0,0.2,0,0.2
	c-0.1,0.8-0.5,1.9-1.6,2.1C206.5,19.8,206.3,19.8,206.1,19.7z"/>
<path class="st8" d="M204.1,20.9c0,0,0.2-0.7-0.4-0.8c-0.6-0.1-0.8,1-0.1,1.3L204.1,20.9z"/>
<path class="st8" d="M206.3,21l0.4,0.9c0.1,0.2,0,0.4-0.2,0.4c0,0-0.1,0-0.1,0l-0.8,0L206.3,21z"/>
<path class="st13" d="M204.2,23.2c-0.4-0.2-0.7-0.5-0.9-0.9c0,0-0.2,1.2,0.8,2.6L204.2,23.2z"/>
<path class="st10" d="M200.4,25.8l2.3,0.8c0.6,0.2,1.1,0.4,1.7,0.5c1.9,0.4,7.3,2,8.3,8.1c1.2,7.4-9,17.4-9,17.4l-12-2.8
	C191.7,49.7,183.2,22.4,200.4,25.8z"/>
<path class="st3" d="M191.7,49.7c0,0-1.6,7.6,4.1,8.6c5.7,1,15.6-3.5,21.6,10.1l2.1-1.2c0,0-1.4-12.4-14.6-16L191.7,49.7z"/>
<path class="st3" d="M193.6,53c0,0,7.5,11.7-5.3,22.8l1.6,2.1c0,0,13.8-6.3,12.4-23.9L193.6,53z"/>
<path class="st14" d="M200.4,32.5c0,0,0.1,3-3.6,6.9s1.5,11.1,1.5,11.1l-6.5-0.7c0,0-2.5-8.9-2-14.8c0.5-5.8,10.4-2.4,10.4-2.4
	L200.4,32.5z"/>
<path class="st10" d="M193.9,25.6c-7.2,0.4-22.3,3.7-15.9,23.9l3.2-0.3c0,0-0.9-15.2,12.4-14.7c0.5,0,1,0,1.5,0
	c2.2-0.2,7.5-1.1,5.3-5.4C199.1,26.8,196.5,25.4,193.9,25.6z"/>
<path class="st11" d="M193.9,25.6c-7.2,0.4-22.3,3.7-15.9,23.9l3.2-0.3c0,0-0.9-15.2,12.4-14.7c0.5,0,1,0,1.5,0
	c2.2-0.2,7.5-1.1,5.3-5.4C199.1,26.8,196.5,25.4,193.9,25.6z"/>
<path class="st8" d="M180.6,49.3c0.3,1,0.3,2.1,0,3.1c-0.5,1.5-1.6,1.8-2.5,1.3c-0.9-0.5,0.9-2.9,0.9-2.9l-0.6-1.3L180.6,49.3z"/>
<rect x="238.9" y="24.1" class="st15" width="7.2" height="7.2"/>
<rect x="248.9" y="24.5" class="st15" width="17.2" height="2.2"/>
<rect x="248.9" y="28.7" class="st15" width="14.2" height="2.2"/>
<polygon class="st7" points="227.9,59.3 228.8,61.2 230.9,61.5 229.4,63 229.7,65 227.9,64.1 226,65 226.4,63 224.9,61.5 227,61.2 
	"/>
<polygon class="st7" points="234.5,59.3 235.4,61.2 237.5,61.5 236,63 236.3,65 234.5,64.1 232.6,65 233,63 231.5,61.5 233.6,61.2 
	"/>
<polygon class="st7" points="241.1,59.3 242,61.2 244.1,61.5 242.6,63 242.9,65 241.1,64.1 239.2,65 239.6,63 238.1,61.5 
	240.2,61.2 "/>
<polygon class="st7" points="247.7,59.3 248.6,61.2 250.7,61.5 249.2,63 249.6,65 247.7,64.1 245.9,65 246.2,63 244.7,61.5 
	246.8,61.2 "/>
<polygon class="st7" points="254.3,59.3 255.3,61.2 257.3,61.5 255.8,63 256.2,65 254.3,64.1 252.5,65 252.8,63 251.3,61.5 
	253.4,61.2 "/>
<polygon class="st7" points="209.2,72.3 210.1,74.2 212.2,74.5 210.7,75.9 211.1,78 209.2,77 207.4,78 207.7,75.9 206.2,74.5 
	208.3,74.2 "/>
<polygon class="st7" points="215.8,72.3 216.7,74.2 218.8,74.5 217.3,75.9 217.7,78 215.8,77 214,78 214.3,75.9 212.8,74.5 
	214.9,74.2 "/>
<polygon class="st7" points="222.4,72.3 223.3,74.2 225.4,74.5 223.9,75.9 224.3,78 222.4,77 220.6,78 220.9,75.9 219.4,74.5 
	221.5,74.2 "/>
<polygon class="st7" points="229,72.3 230,74.2 232,74.5 230.5,75.9 230.9,78 229,77 227.2,78 227.5,75.9 226,74.5 228.1,74.2 "/>
<polygon class="st7" points="189.1,84.5 190,86.4 192.1,86.7 190.6,88.1 191,90.2 189.1,89.2 187.3,90.2 187.6,88.1 186.1,86.7 
	188.2,86.4 "/>
<polygon class="st7" points="195.7,84.5 196.7,86.4 198.7,86.7 197.2,88.1 197.6,90.2 195.7,89.2 193.9,90.2 194.2,88.1 192.7,86.7 
	194.8,86.4 "/>
<polygon class="st7" points="202.3,84.5 203.3,86.4 205.3,86.7 203.8,88.1 204.2,90.2 202.3,89.2 200.5,90.2 200.9,88.1 199.3,86.7 
	201.4,86.4 "/>
</svg>
