<?xml version="1.0" encoding="utf-8"?>
<!-- Generator: Adobe Illustrator 24.0.2, SVG Export Plug-In . SVG Version: 6.00 Build 0)  -->
<svg version="1.1" id="Layer_1" xmlns="http://www.w3.org/2000/svg" xmlns:xlink="http://www.w3.org/1999/xlink" x="0px" y="0px"
	 viewBox="0 0 283 63.2" style="enable-background:new 0 0 283 63.2;" xml:space="preserve">
<g id="fWDURA.tif">
	<g>
		<path d="M19.8,49.3c0-11.5,0-22.9,0-34.4c0.6-1.6,1.2-2,3-2c6.1,0,12.2,0,18.3,0c1.7,0,2.7,1,2.7,2.7c0,4,0,8.1,0,12.1
			c0,7,0,14,0,20.9c0,0.4-0.1,0.9-0.3,1.3c-0.3,0.8-1,1.1-1.7,1.3c-6.6,0-13.3,0-19.9,0c-0.2-0.1-0.4-0.1-0.7-0.2
			C20.4,50.7,20,50.1,19.8,49.3z M41.3,41.7c0-8,0-16,0-24c-6.4,0-12.8,0-19.1,0c0,8,0,16,0,24C28.6,41.7,34.9,41.7,41.3,41.7z
			 M31.8,48.9c1.3,0,2.4-1.1,2.4-2.4c0-1.3-1.1-2.4-2.4-2.4c-1.3,0-2.4,1.1-2.4,2.4C29.4,47.8,30.5,48.9,31.8,48.9z"/>
	</g>
</g>
<g id="Rm9GBr.tif">
	<g>
		<path d="M149.1,49.2c-11.9,0-23.8,0-35.7,0c-0.4-0.1-0.9-0.2-1.3-0.4c-1.5-0.7-2.2-2-2.2-3.6c0-2.5,0-5,0-7.5c0-6.2,0-12.5,0-18.7
			c0-1.3,0.5-2.4,1.5-3.2c0.8-0.6,1.6-0.8,2.6-0.8c3.8,0,7.6,0,11.4,0c7.7,0,15.5,0,23.2,0c1.4,0,2.5,0.4,3.3,1.5
			c0.4,0.6,0.6,1.2,0.8,1.9c0,9.1,0,18.3,0,27.4c0,0.1-0.1,0.1-0.1,0.2c-0.2,1.3-0.9,2.2-2,2.8C150.1,49,149.6,49.1,149.1,49.2z
			 M133.1,18.3c-5,0-10.1,0-15.1,0c-0.9,0-1.2,0.2-1.2,1.2c0,8.4,0,16.8,0,25.2c0,0.9,0.2,1.2,1.2,1.2c10,0,20.1,0,30.1,0
			c0.9,0,1.2-0.2,1.2-1.2c0-8.4,0-16.8,0-25.2c0-0.9-0.2-1.2-1.2-1.2C143.1,18.3,138.1,18.3,133.1,18.3z M115.2,32.1
			c0-0.9-0.7-1.6-1.6-1.6c-0.9,0-1.6,0.7-1.6,1.6c0,0.9,0.8,1.6,1.7,1.6C114.5,33.7,115.2,33,115.2,32.1z"/>
	</g>
</g>
<g id="V71ctp.tif">
	<g>
		<path d="M204.5,49.1c0.3-0.6,0.8-0.8,1.5-0.8c10.7,0,21.4,0,32.1,0c7.3,0,14.6,0,21.9,0c1.3,0,1.6,0.3,1.6,1.6c0,0.9,0,1.9,0,2.8
			c0,2.3-1.2,3.8-3.4,4.2c-0.5,0.1-1,0.1-1.5,0.1c-15.7,0-31.4,0-47.1,0c-1.2,0-2.3-0.3-3.3-0.9c-0.9-0.6-1.4-1.4-1.7-2.3
			C204.5,52.3,204.5,50.7,204.5,49.1z M233,53.8c1.5,0,3,0,4.6,0c0.7,0,1.4,0,2.1,0c0.6,0,1-0.5,1-1c0-0.5-0.3-1-0.9-1.1
			c-0.2,0-0.4,0-0.7,0c-4.1,0-8.2,0-12.3,0c-0.3,0-0.5,0-0.8,0.1c-0.6,0.2-0.9,0.8-0.7,1.3c0.2,0.6,0.6,0.7,1.2,0.7
			C228.7,53.8,230.9,53.8,233,53.8z"/>
		<path d="M233,46.4c-7.3,0-14.7,0-22,0c-1.7,0-2.9-0.9-3.3-2.3c-0.1-0.4-0.1-0.8-0.1-1.2c0-10.4,0-20.8,0-31.2
			c0-2.8,2.1-4.6,4.6-4.6c13.9,0,27.8,0,41.8,0c2.5,0,4.6,1.8,4.6,4.6c0,10.4,0,20.8,0,31.1c0,2.2-1.3,3.5-3.5,3.5
			C247.6,46.4,240.3,46.4,233,46.4z M212.9,41c13.4,0,26.8,0,40.2,0c0-9.5,0-19,0-28.5c-13.4,0-26.8,0-40.2,0
			C212.9,22,212.9,31.5,212.9,41z"/>
	</g>
</g>
</svg>
