<?xml version="1.0" encoding="utf-8"?>
<!-- Generator: Adobe Illustrator 24.0.2, SVG Export Plug-In . SVG Version: 6.00 Build 0)  -->
<svg version="1.1"
	 id="svg8" inkscape:export-filename="/Applications/MAMP/htdocs/GrapeCommunity/api/img/app_logo_front.png" inkscape:export-xdpi="96" inkscape:export-ydpi="96" inkscape:version="1.0beta2 (2b71d25, 2019-12-03)" sodipodi:docname="app_email_header.svg" xmlns:cc="http://creativecommons.org/ns#" xmlns:dc="http://purl.org/dc/elements/1.1/" xmlns:inkscape="http://www.inkscape.org/namespaces/inkscape" xmlns:rdf="http://www.w3.org/1999/02/22-rdf-syntax-ns#" xmlns:sodipodi="http://sodipodi.sourceforge.net/DTD/sodipodi-0.dtd" xmlns:svg="http://www.w3.org/2000/svg"
	 xmlns="http://www.w3.org/2000/svg" xmlns:xlink="http://www.w3.org/1999/xlink" x="0px" y="0px" viewBox="0 0 283 104"
	 style="enable-background:new 0 0 283 104;" xml:space="preserve">
<style type="text/css">
	.st0{display:none;}
	.st1{fill:#1C2224;}
	.st2{fill:#FFCC00;}
</style>
<defs>
	
		<inkscape:perspective  id="perspective2422" inkscape:persp3d-origin="135.46667 : -153.10555 : 1" inkscape:vp_x="0 : -107.94999 : 1" inkscape:vp_y="0 : 999.99999 : 0" inkscape:vp_z="270.93333 : -107.94999 : 1" sodipodi:type="inkscape:persp3d">
		</inkscape:perspective>
</defs>
<sodipodi:namedview  bordercolor="#666666" borderopacity="1.0" id="base" inkscape:current-layer="layer5" inkscape:cx="150.10861" inkscape:cy="53.228634" inkscape:document-rotation="0" inkscape:document-units="mm" inkscape:guide-bbox="true" inkscape:pageopacity="0.0" inkscape:pageshadow="2" inkscape:window-height="706" inkscape:window-maximized="0" inkscape:window-width="1280" inkscape:window-x="0" inkscape:window-y="23" inkscape:zoom="1.9013889" pagecolor="#ffffff" showgrid="false" showguides="true" units="px">
	<sodipodi:guide  id="guide1690" orientation="0,-1" position="-10.869369,136.42489"></sodipodi:guide>
	<sodipodi:guide  id="guide2258" orientation="1,0" position="136.54645,136.42489"></sodipodi:guide>
</sodipodi:namedview>
<g id="layer4" inkscape:groupmode="layer" inkscape:label="Layer 4" sodipodi:insensitive="true" class="st0">
	
		<image style="display:inline;overflow:visible;opacity:0.82;enable-background:new    ;" width="1024" height="1024" id="image2252" xlink:href="E68A65F3C2251890.png"  transform="matrix(1 0 0 1 4.6585 -3.9214)">
	</image>
</g>
<g id="layer3" inkscape:groupmode="layer" inkscape:label="Layer 3">
</g>
<rect x="-0.5" y="-0.1" class="st1" width="283" height="104"/>
<g id="g18" inkscape:groupmode="layer" inkscape:label="Image">
	<g id="text24" transform="matrix(0.92407939,0,0,1.0821581,-16,10)">
		<path id="path33" d="M156.3,78.5c-5,0-9.5-0.7-13.7-2.2c-4.2-1.5-7.8-3.6-10.8-6.5s-5.4-6.5-7-10.8c-1.6-4.3-2.5-9.3-2.5-15
			c0-5.3,0.8-10.1,2.4-14.4c1.6-4.3,3.9-8,6.9-11.1c2.9-3,6.5-5.2,10.7-6.9c4.3-1.6,9-2.4,14.1-2.4c2.8,0,5.3,0.2,7.6,0.5
			c2.3,0.3,4.4,0.7,6.3,1.2c2,0.6,3.8,1.2,5.4,1.9c1.6,0.7,3.1,1.3,4.3,1.9v16.2h-2c-0.8-0.7-1.9-1.6-3.2-2.6c-1.3-1-2.7-2-4.3-2.9
			c-1.6-1-3.4-1.8-5.3-2.4c-1.9-0.7-4-1-6.1-1c-2.4,0-4.7,0.4-6.9,1.2c-2.2,0.7-4.2,2-6,3.8c-1.8,1.7-3.2,4-4.3,6.8
			c-1.1,2.8-1.6,6.2-1.6,10.2c0,4.2,0.6,7.7,1.7,10.5c1.2,2.8,2.7,5,4.5,6.6c1.8,1.6,3.9,2.8,6.1,3.5c2.2,0.7,4.4,1,6.6,1
			c2.1,0,4.2-0.3,6.2-0.9c2.1-0.6,4-1.5,5.7-2.6c1.5-0.9,2.8-1.8,4.1-2.8c1.3-1,2.3-1.8,3.1-2.6h1.8v15.9c-1.7,0.7-3.3,1.4-4.8,2.1
			c-1.5,0.7-3.1,1.2-4.8,1.7c-2.2,0.6-4.2,1.1-6.1,1.4C162.2,78.3,159.6,78.5,156.3,78.5L156.3,78.5z"/>
	</g>
	<g id="text28" transform="translate(-16,10)">
		<path id="path30" d="M200.2,34.4h-26.9v-5.7c2.1-1.5,4.1-3.1,6.2-4.7c2.1-1.7,3.7-3.1,5-4.3c1.9-1.8,3.2-3.4,4-4.7s1.2-2.7,1.2-4
			c0-1.6-0.5-2.8-1.5-3.6c-1-0.9-2.4-1.3-4.3-1.3c-1.4,0-2.9,0.3-4.5,0.9c-1.6,0.6-3,1.3-4.3,2.2h-0.7V1.5c1.1-0.5,2.7-1,4.8-1.4
			c2.1-0.5,4.3-0.7,6.4-0.7c4.3,0,7.6,0.9,9.8,2.7c2.3,1.8,3.4,4.3,3.4,7.6c0,2.2-0.5,4.2-1.6,6.2c-1.1,1.9-2.7,4-5,6
			c-1.4,1.3-2.8,2.5-4.2,3.6c-1.4,1.1-2.4,1.8-3,2.3h15.4V34.4z"/>
	</g>
	<g id="g50" transform="matrix(0.92407939,0,0,1.0821581,-28,-6)">
		<path id="path48" class="st2" d="M167,90.6c-5,0-9.5-0.7-13.7-2.2c-4.2-1.5-7.8-3.6-10.8-6.5c-3-2.9-5.4-6.5-7-10.8
			c-1.6-4.3-2.5-9.3-2.5-15c0-5.3,0.8-10.1,2.4-14.4s3.9-8,6.9-11.1c2.9-3,6.5-5.2,10.7-6.9c4.3-1.6,9-2.4,14.1-2.4
			c2.8,0,5.3,0.2,7.6,0.5c2.3,0.3,4.4,0.7,6.3,1.2c2,0.6,3.8,1.2,5.4,1.9c1.6,0.7,3.1,1.3,4.3,1.9v16.2h-2c-0.8-0.7-1.9-1.6-3.2-2.6
			c-1.3-1-2.7-2-4.3-2.9c-1.6-1-3.4-1.8-5.3-2.4c-1.9-0.7-4-1-6.1-1c-2.4,0-4.7,0.4-6.9,1.2c-2.2,0.7-4.2,2-6,3.8
			c-1.8,1.7-3.2,4-4.3,6.8c-1.1,2.8-1.6,6.2-1.6,10.2c0,4.2,0.6,7.7,1.7,10.5c1.2,2.8,2.7,5,4.5,6.6c1.8,1.6,3.9,2.8,6.1,3.5
			c2.2,0.7,4.4,1,6.6,1c2.1,0,4.2-0.3,6.2-0.9c2.1-0.6,4-1.5,5.7-2.6c1.5-0.9,2.8-1.8,4.1-2.8c1.3-1,2.3-1.8,3.1-2.6h1.8v15.9
			c-1.7,0.7-3.3,1.4-4.8,2.1c-1.5,0.7-3.1,1.2-4.8,1.7c-2.2,0.6-4.2,1.1-6.1,1.4S170.3,90.6,167,90.6L167,90.6z"/>
	</g>
	<g id="g54" transform="translate(-28,-6)">
		<path id="path52" class="st2" d="M210.1,47.5h-26.9v-5.7c2.1-1.5,4.1-3.1,6.2-4.7c2.1-1.7,3.7-3.1,5-4.3c1.9-1.8,3.2-3.4,4-4.7
			c0.8-1.3,1.2-2.7,1.2-4c0-1.6-0.5-2.8-1.5-3.6c-1-0.9-2.4-1.3-4.3-1.3c-1.4,0-2.9,0.3-4.5,0.9c-1.6,0.6-3,1.3-4.3,2.2H184v-7.6
			c1.1-0.5,2.7-1,4.8-1.4c2.1-0.5,4.3-0.7,6.4-0.7c4.3,0,7.6,0.9,9.8,2.7c2.3,1.8,3.4,4.3,3.4,7.6c0,2.2-0.5,4.2-1.6,6.2
			c-1.1,1.9-2.7,4-5,6c-1.4,1.3-2.8,2.5-4.2,3.6c-1.4,1.1-2.4,1.8-3,2.3h15.4V47.5z"/>
	</g>
</g>
</svg>
